<?xml version="1.0" encoding="UTF-8" standalone="no"?>
<!-- Generator: Adobe Illustrator 12.0.0, SVG Export Plug-In . SVG Version: 6.00 Build 51448)  -->

<svg
   version="1.1"
   id="Layer_1"
   width="156.62827"
   height="176.32404"
   viewBox="0 0 156.62827 176.32404"
   overflow="visible"
   enable-background="new 0 0 521 189"
   xml:space="preserve"
   sodipodi:docname="Zune_logo_and_wordmark.svg"
   inkscape:version="1.1 (c68e22c387, 2021-05-23)"
   xmlns:inkscape="http://www.inkscape.org/namespaces/inkscape"
   xmlns:sodipodi="http://sodipodi.sourceforge.net/DTD/sodipodi-0.dtd"
   xmlns="http://www.w3.org/2000/svg"
   xmlns:svg="http://www.w3.org/2000/svg"><defs
   id="defs36" /><sodipodi:namedview
   id="namedview34"
   pagecolor="#ffffff"
   bordercolor="#666666"
   borderopacity="1.0"
   inkscape:pageshadow="2"
   inkscape:pageopacity="0.0"
   inkscape:pagecheckerboard="0"
   showgrid="false"
   fit-margin-top="0"
   fit-margin-left="0"
   fit-margin-right="0"
   fit-margin-bottom="0"
   inkscape:zoom="2.1324376"
   inkscape:cx="250.18317"
   inkscape:cy="89.80333"
   inkscape:window-width="1920"
   inkscape:window-height="1017"
   inkscape:window-x="-8"
   inkscape:window-y="-8"
   inkscape:window-maximized="1"
   inkscape:current-layer="Layer_1" />
<g
   id="g31"
   transform="translate(-10.316832,-4.6894689)">
	<linearGradient
   id="XMLID_2_"
   gradientUnits="userSpaceOnUse"
   x1="88.485802"
   y1="177.5806"
   x2="88.485802"
   y2="11.4194">
		<stop
   offset="0"
   style="stop-color:#EE9037"
   id="stop2" />
		<stop
   offset="0.0996"
   style="stop-color:#EE8E3E"
   id="stop4" />
		<stop
   offset="0.259"
   style="stop-color:#EE884F"
   id="stop6" />
		<stop
   offset="0.4583"
   style="stop-color:#EC7D63"
   id="stop8" />
		<stop
   offset="0.6897"
   style="stop-color:#EA6C76"
   id="stop10" />
		<stop
   offset="0.9452"
   style="stop-color:#E6558A"
   id="stop12" />
		<stop
   offset="1"
   style="stop-color:#E64E8D"
   id="stop14" />
	</linearGradient>
	<path
   fill="url(#XMLID_2_)"
   d="m 158.423,60.824 c 2.102,-3.708 4.078,-8.157 -2.594,-11.987 -6.674,-3.833 -53.26,-31.142 -59.687,-35.094 l -0.247,0.123 c -2.967,-1.484 -9.022,-4.328 -14.704,-0.62 -5.686,3.709 -49.06,29.164 -56.845,33.737 -7.784,4.574 -5.438,10.626 -1.484,12.975 3.957,2.347 14.954,9.022 18.414,11.367 3.458,2.35 6.548,5.191 3.583,10.259 -2.967,5.068 -22.243,38.676 -26.197,45.104 -3.956,6.426 -1.976,11.615 2.843,14.581 4.817,2.966 51.531,29.904 57.091,33.119 5.561,3.213 10.996,4.446 16.311,1.603 5.314,-2.842 53.014,-31.014 58.945,-34.6 5.931,-3.583 3.089,-9.514 0.493,-11.122 -2.595,-1.605 -15.818,-10.255 -20.884,-13.467 -5.065,-3.214 -4.571,-5.316 -1.854,-10.134 2.615,-4.636 24.715,-42.137 26.816,-45.844 z M 45.861,66.106 C 43.409,64.796 34.372,59.512 32.068,58.078 27.744,55.39 29.114,51.237 32.091,49.723 35.068,48.21 65.55,30.792 69.14,29.133 c 3.036,-1.402 5.966,1.067 3.863,4.923 -1.328,2.438 -14.879,25.373 -17.353,29.576 -2.468,4.201 -5.769,4.62 -9.789,2.474 z m -12.173,49.24 c 1.299,-2.455 14.563,-25.557 16.983,-29.79 2.418,-4.23 5.713,-4.691 9.761,-2.596 2.467,1.282 11.569,6.455 13.889,7.86 4.357,2.634 3.039,6.801 0.083,8.354 -2.957,1.547 -33.224,19.342 -36.791,21.045 -3.02,1.442 -5.978,-0.994 -3.925,-4.873 z m 50.942,46.642 c -0.263,4.448 -3.782,6.505 -10.181,2.664 -6.4,-3.847 -38.498,-22.01 -42.52,-24.237 -4.023,-2.228 -6.146,-5.854 -0.643,-8.93 5.502,-3.074 40.188,-23.075 45.14,-26.113 4.951,-3.041 8.5,-1.54 8.445,4.65 -0.068,8.203 0.02,47.519 -0.241,51.966 z m 0.223,-81.259 c 0.127,3.336 -2.834,6.552 -7.285,4.086 -2.375,-1.316 -11.392,-6.638 -13.725,-8.14 -3.835,-2.467 -5.076,-5.556 -2.608,-9.759 2.467,-4.205 15.904,-27.207 17.387,-29.555 2.344,-3.71 5.93,-2.357 6.182,0.979 0.296,3.943 -0.078,39.052 0.049,42.389 z m 6.965,-52.53 c -0.124,-5.806 2.963,-8.114 8.278,-4.943 7.044,4.204 41.024,23.974 44.732,26.445 3.707,2.473 3.707,6.55 -2.842,10.133 -6.55,3.585 -38.432,22.12 -42.384,24.468 -3.955,2.349 -8.157,2.349 -8.033,-3.955 0.124,-6.304 0.372,-46.341 0.249,-52.148 z m 0,123.079 c -0.293,-3.944 0.123,-39.05 0,-42.386 -0.124,-3.338 2.842,-6.549 7.291,-4.079 2.369,1.318 11.382,6.651 13.716,8.157 3.829,2.472 5.065,5.562 2.596,9.763 -2.473,4.202 -15.938,27.188 -17.425,29.533 -2.348,3.708 -5.931,2.348 -6.178,-0.988 z m 38.975,-27.716 c 2.449,1.311 11.481,6.608 13.781,8.045 4.322,2.694 2.948,6.845 -0.031,8.355 -2.981,1.509 -33.484,18.887 -37.074,20.543 -3.038,1.399 -5.966,-1.076 -3.86,-4.928 1.331,-2.438 14.909,-25.354 17.387,-29.555 2.477,-4.197 5.778,-4.612 9.797,-2.46 z m -4.785,-19.458 c -2.425,4.229 -5.721,4.686 -9.767,2.584 -2.463,-1.285 -11.56,-6.467 -13.881,-7.875 -4.351,-2.638 -3.03,-6.806 -0.071,-8.352 2.961,-1.546 33.249,-19.304 36.817,-21.005 3.02,-1.436 5.979,1.002 3.922,4.879 -1.304,2.454 -14.595,25.54 -17.02,29.769 z"
   id="path17"
   style="fill:url(#XMLID_2_)" />
	<g
   id="g29">
		<g
   id="g27">
			<path
   fill="#a1a0a1"
   d="m 182.373,65.406 h 51.511 c 0,0 -49.747,56.166 -51.352,57.772 -1.604,1.604 -1.604,4.011 -1.604,4.011 0,0 0,3.37 0,4.333 0,0.964 0,2.406 3.369,2.406 3.37,0 59.857,0 62.424,0 2.567,0 3.532,-1.124 3.532,-2.246 0,-1.123 0,-4.493 0,-5.776 0,-1.283 -0.643,-2.166 -2.166,-2.166 -1.525,0 -45.016,0 -46.941,0 -1.925,0 -3.85,0 -3.85,0 0,0 49.266,-55.927 50.71,-57.851 1.444,-1.926 2.24,-2.761 2.24,-4.688 0,-1.925 -0.03,-2.697 -0.03,-3.981 0,-1.284 -0.5,-2.726 -2.691,-2.726 -2.407,0 -59.216,0 -59.216,0 z"
   id="path19" />
			<path
   fill="#a1a0a1"
   d="m 265.642,54.478 c 1.928,0 5.313,0.017 6.436,0.017 1.865,0 2.488,0.803 2.488,2.487 0,1.686 0,52.234 0,55.604 0,3.37 2.316,12.959 12.959,12.959 9.105,0 20.178,0 23.227,0 6.496,0 12.98,-4.331 12.98,-12.979 0,-8.646 0,-54.06 0,-55.664 0,-1.604 0.69,-2.087 1.985,-2.087 1.293,0 4.934,-0.01 7.02,-0.01 0.742,0 2.087,0.171 2.087,2.098 0,1.925 0,48.302 0,52.636 0,10.59 -5.854,25.613 -24.468,25.613 -18.615,0 -11.8,-0.099 -22.392,-0.099 -14.212,0 -24.873,-10.109 -24.873,-26.639 0,-16.529 0.016,-49.556 0.016,-51.322 -0.001,-1.765 1.253,-2.614 2.535,-2.614 z"
   id="path21" />
			<path
   fill="#a1a0a1"
   d="m 415.778,135.151 c -1.926,0 -5.313,-0.019 -6.438,-0.019 -1.867,0 -2.486,-0.802 -2.486,-2.486 0,-1.686 0,-52.235 0,-55.605 0,-3.37 -2.319,-12.959 -12.959,-12.959 -9.106,0 -20.179,0 -23.229,0 -6.495,0 -12.979,4.335 -12.979,12.98 0,8.645 0,54.059 0,55.664 0,1.604 -0.692,2.085 -1.986,2.085 -1.295,0 -4.935,0.011 -7.021,0.011 -0.741,0 -2.084,-0.17 -2.084,-2.096 0,-1.926 0,-48.304 0,-52.636 0,-10.59 5.852,-25.612 24.468,-25.612 18.614,0 11.797,0.096 22.389,0.096 14.215,0 24.874,10.11 24.874,26.641 0,16.528 -0.014,49.556 -0.014,51.32 0,1.765 -1.253,2.616 -2.535,2.616 z"
   id="path23" />
			<path
   fill="#a1a0a1"
   d="m 497.535,61.52 c -5.639,-5.924 -13.966,-8.321 -21.723,-8.321 -7.762,0 -14.25,0 -17.776,0 -3.526,0 -16.791,0.844 -23.703,11.851 -6.909,11.002 -5.499,24.404 -5.499,28.636 0,4.233 -1.383,22.95 10.015,33.434 7.054,6.489 16.081,6.914 21.161,6.914 5.077,0 34.142,0 34.142,0 l 6.205,-9.734 c 0,0 -32.166,0 -40.628,0 -8.464,0 -19.466,-5.925 -19.466,-17.917 0,-5.925 0,-8.322 0,-8.322 0,0 54.031,0 58.119,0 4.091,0 6.066,-1.412 6.066,-4.515 0,-3.102 0,-7.759 0,-11.849 0,-4.094 -1.268,-14.251 -6.913,-20.177 z m -3.669,25.112 h -53.198 c 0,0 0.063,-1.708 0.063,-5.8 0,-9.654 7.143,-16.771 18.263,-16.771 8.89,0 1.455,0.105 17.819,0.105 13.246,0 17.054,11.111 17.054,15.386 -0.001,1.973 -0.001,7.08 -0.001,7.08 z"
   id="path25" />
		</g>
	</g>
</g>
<rect
   style="fill:none"
   id="rect60"
   width="156.62827"
   height="176.32404"
   x="0"
   y="0" /></svg>
